PathFileType	4	(X/Y/Z)	Patient4_TMGait_0pt3_01_left_02.trc.trc
DataRate	CameraRate	NumFrames	NumMarkers	Units	OrigDataRate	OrigDataStartFrame	OrigNumFrames
52.238805970149	52.238805970149	5	33	mm	52.238805970149	71	       141
Frame#	Time	Sacral			L.Shoulder			Chest			R.Shoulder			Neck			R.ASIS			L.ASIS			R.Thigh.Superior			R.Thigh.Lateral			R.Thigh.Inferior			R.Patella			L.Thigh.Superior			L.Thigh.Lateral			L.Thigh.Inferior			L.Patella			L.Shank.Superior			L.Shank.Lateral			L.Shank.Inferior			R.Shank.Superior			R.Shank.Lateral			R.Shank.Inferior			R.Heel			R.Midfoot.Superior			R.Midfoot.Lateral			R.Toe			L.Heel			L.Midfoot.Lateral			L.Midfoot.Superior			L.Toe			L.Elbow			L.Wrist			R.Elbow			R.Wrist			
		X1	Y1	Z1	X2	Y2	Z2	X3	Y3	Z3	X4	Y4	Z4	X5	Y5	Z5	X6	Y6	Z6	X7	Y7	Z7	X8	Y8	Z8	X9	Y9	Z9	X10	Y10	Z10	X11	Y11	Z11	X12	Y12	Z12	X13	Y13	Z13	X14	Y14	Z14	X15	Y15	Z15	X16	Y16	Z16	X17	Y17	Z17	X18	Y18	Z18	X19	Y19	Z19	X20	Y20	Z20	X21	Y21	Z21	X22	Y22	Z22	X23	Y23	Z23	X24	Y24	Z24	X25	Y25	Z25	X26	Y26	Z26	X27	Y27	Z27	X28	Y28	Z28	X29	Y29	Z29	X30	Y30	Z30	X31	Y31	Z31	X32	Y32	Z32	X33	Y33	Z33	

71	4.310000000000	786.655528714274	999.868362277976	422.209068855984	981.877273693082	1433.797458345137	258.463999509609	1057.638531045812	1368.239509405320	434.686221345523	947.209190452197	1441.305969328078	592.633398758067	945.293104140078	1497.195418038360	414.205647841659	1002.219157516955	949.821394465750	570.642938092144	1021.489936139479	963.426513025570	294.862178056796	1074.664910131032	761.985831490404	549.099299380113	1014.344219583951	645.055427405599	615.009648766637	1102.089196131324	601.316544944515	538.922003109080	1126.747182601062	516.152796719684	557.257810780435	1042.795415723213	739.538683314266	333.295962798847	944.390105737755	630.531327034378	265.584397001109	1008.579680016138	546.855431185727	338.058363947600	997.883264260107	479.413891166534	348.252057778129	967.245823126883	409.772906543662	339.045930131733	870.035111281233	300.784051237797	291.847964104228	911.308167345356	188.249091468970	366.254447848099	1101.850883134580	427.772170243144	567.267044503794	1035.212525460407	319.959519548656	628.526656718118	1098.057743020594	227.337822207278	580.686757265822	989.655981498622	48.458682536697	547.435152915629	1154.380050651897	112.551938558731	599.398956906209	1067.981047933996	42.384790836481	626.615413982376	1272.799644200127	67.737207115665	635.103125887074	775.955057075664	37.966184440911	414.658632468262	844.107723228117	35.476596594434	328.973516321486	929.651043079657	96.117223793323	352.154166565968	1054.957614466311	45.868147561759	312.781319935669	1059.157150288813	1100.662138503515	124.156025372635	1308.155075724761	1035.013262774389	153.005942269392	815.225293811191	1115.805430302677	690.878883006865	815.080448591428	853.821664879020	698.652283402451	
72	4.329142857143	788.348951132514	999.648917083484	423.512437425411	985.058923233159	1433.620446241361	262.054394972229	1058.978380264595	1367.931594204426	438.987424874164	946.981017712249	1441.021095169456	595.851070022103	946.816128143564	1496.794361992420	417.507138826844	1002.790420782161	948.958038195650	573.529315822857	1023.938293752849	962.989322099035	297.738226990173	1073.761815596469	760.148021047174	552.514133873130	1011.494820841373	643.411655405877	617.311651389464	1099.622700531631	599.543873030711	541.861660937542	1122.994680383823	515.426442346355	559.153867133910	1041.510978601024	738.085683897948	335.256786700733	941.189291750199	630.834280139327	266.519158509096	1003.569951403444	545.997461023665	338.800003597902	991.867839549305	479.029583557935	348.741004864169	961.416184465942	409.804028293434	339.366751928682	864.165054440343	300.943874445471	291.909432760840	905.472657322355	188.294879747489	366.207029060563	1100.308591923292	426.786422839371	569.019329278470	1036.015894211518	317.455751529570	630.224765291854	1100.609828564328	226.240052797865	581.891214644164	995.147924944711	46.486791465873	548.888115546126	1159.564529492828	111.776683208873	599.684470308633	1074.185480766025	40.816760762738	627.403499639330	1278.771962044651	67.949766890484	634.155533833915	770.115330340303	37.914418502829	414.648533798966	838.255323131927	35.396992279508	328.948017411861	923.792160513243	96.083266811456	352.076153556959	1049.136391052410	45.823086877542	312.798206019773	1064.284900650456	1101.571036354768	127.121466262854	1315.136773927233	1046.275842080933	157.617404399103	805.660697610110	1119.434741955366	690.702424929106	798.885555474152	857.464588971646	697.276349555575	
73	4.348285714286	790.254581096011	999.107520470915	425.049271076663	988.131743412707	1433.233218659693	265.996710742410	1060.305079263859	1367.432610476364	443.578471369549	946.758782080028	1440.445837300016	599.407270583070	948.278444755931	1496.147735593512	421.171413352617	1003.613314894463	947.801170762227	576.590786799032	1026.595830580358	962.362249286989	300.837384267523	1073.339776438420	758.191707179478	555.893491827354	1009.200562480428	641.550460725595	619.370753092445	1097.847492256130	597.717939676913	544.619607521776	1119.767475986416	514.256214298415	560.889926956468	1040.739111707238	736.537163679070	337.252527618441	938.553791925382	630.980003499956	267.637771830118	999.236837937828	545.045433888596	339.691394626278	986.585787257259	478.483800549042	349.384508051861	956.164897489562	409.663367355689	339.845648439658	858.694517430674	301.103208596066	292.060891507121	899.813855571237	188.247051853348	366.208373200933	1098.718952005202	425.326215294923	570.636615842370	1035.842137913505	315.037066019070	631.547740161974	1101.533097619652	224.810461196488	582.834708784333	997.752343837091	45.042979046458	549.800472287516	1162.057376110112	110.639335857025	599.770584857052	1077.184165893736	39.596722629985	627.947430615737	1281.681236677689	67.225011620403	633.560974735298	764.280711937783	37.861704865490	414.632954067920	832.414647722836	35.316060616277	328.922396927402	917.951650200163	96.038118339118	352.014772351358	1043.326091917374	45.732264759623	312.818283385841	1069.295223625948	1102.233416348153	130.443891089022	1321.546879182041	1056.963285398241	162.414435853933	797.845531348851	1122.327052388002	690.928932484419	785.874786484478	860.396191049045	696.364076809172	
74	4.367428571429	792.341630726661	998.325538396561	426.804664828316	991.136849526314	1432.702553712399	270.280299133626	1061.651229855197	1366.788640835472	448.446310531860	946.570333866001	1439.622812619635	603.288087905288	949.715862306567	1495.315946058376	425.193124771766	1004.658353527480	946.440227428248	579.816977005060	1029.430254417159	961.583193133475	304.155148307383	1073.401931524284	756.225657703493	559.218673337057	1007.492882168964	639.585962562129	621.210544962100	1096.785111618061	595.926792628427	547.220217763479	1117.159789112373	512.743853529466	562.499091666840	1040.505421139654	734.925554258526	339.316152230526	936.556405081487	630.963295494582	268.990725189716	995.689040390563	544.009147389931	340.792409652582	982.152875846294	477.763723122397	350.250677315508	951.588271238965	409.339462047001	340.535047970841	853.693174813043	301.282996738883	292.344417111350	894.360654874218	188.104477654281	366.280798956738	1097.198472780048	423.496403043058	572.117035804990	1034.892241242742	312.725129512950	632.557062887857	1101.049371930726	223.074839960844	583.520401397612	997.749590324954	44.013814542723	550.227534636859	1162.133324910283	109.155230413439	599.663679777728	1077.295602492645	38.647979149625	628.280278869979	1281.865386849627	65.650241040720	633.280558980947	758.456524522539	37.826504699080	414.602660040419	826.595277284420	35.246217542291	328.898315717611	912.145920122085	95.987878764419	351.972715051525	1037.536511925807	45.574572590316	312.839574190594	1074.146780090105	1102.677444980682	134.121112795531	1327.387982137416	1066.977884255039	167.375998015446	791.781077834776	1124.389844326217	691.625462283475	776.082429305527	862.459611039910	696.070355383556	
75	4.386571428571	794.567713828241	997.412981038926	428.766722540823	994.128462080273	1432.111963299092	274.882271080458	1063.055974104140	1366.062925982582	453.568280380509	946.453268659916	1438.626130071835	607.465078899563	951.173177773370	1494.380738990090	429.550405519722	1005.887159175386	944.990778190911	583.199602535377	1032.393738942221	960.709200333173	307.685003734253	1073.924534026138	754.369242490973	562.475430757103	1006.388904067968	637.651701306540	622.884456340419	1096.410425728179	594.261820191448	549.686186370554	1115.227644798414	511.018421015597	564.012380551734	1040.790953090937	733.295636713713	341.490470106026	935.220144602079	630.798868276287	270.622997114900	992.977295503136	542.911675368399	342.155994812172	978.624191596039	476.874672727774	351.396586255193	947.732820219081	408.842392450618	341.476016189358	849.193948890973	301.513275639980	292.797673873157	889.132546409524	187.882136254092	366.441131656919	1095.850343201248	421.440751535525	573.461533981095	1033.417215514558	310.573645175866	633.341849702981	1099.440219479740	221.120585537475	583.965578414523	995.548892704510	43.314459311689	550.268564258794	1160.180734147254	107.413989786663	599.381743849750	1074.992834068034	37.925230799023	628.446837619140	1279.789290431157	63.420055846431	633.231480102815	752.647268398956	37.835348077225	414.547538347410	820.807216089562	35.204169608232	328.876615606976	906.392893371808	95.942467958720	351.948546916556	1031.777933001817	45.332428289273	312.858899053935	1078.802223202932	1102.949057455979	138.141327738034	1332.674191829891	1076.245590136927	172.481619834672	787.409463610162	1125.610488781709	692.839383838373	769.477689984478	863.609470429645	696.535158623776	
